<mxfile host="app.diagrams.net" modified="2023-09-22T17:45:06.858Z" agent="Mozilla/5.0 (Macintosh; Intel Mac OS X 10_15_7) AppleWebKit/605.1.15 (KHTML, like Gecko) Version/15.4 Safari/605.1.15" etag="RFEVG7KDlCf4i1tHB0jV" version="21.7.5" type="device">
  <diagram id="C5RBs43oDa-KdzZeNtuy" name="Page-1">
    <mxGraphModel dx="1080" dy="882" grid="1" gridSize="10" guides="1" tooltips="1" connect="1" arrows="1" fold="1" page="1" pageScale="1" pageWidth="827" pageHeight="1169" math="0" shadow="0">
      <root>
        <mxCell id="WIyWlLk6GJQsqaUBKTNV-0" />
        <mxCell id="WIyWlLk6GJQsqaUBKTNV-1" parent="WIyWlLk6GJQsqaUBKTNV-0" />
        <mxCell id="9-DIKQarRm8jcJujgLMe-28" style="edgeStyle=orthogonalEdgeStyle;rounded=0;orthogonalLoop=1;jettySize=auto;html=1;exitX=0;exitY=0.5;exitDx=0;exitDy=0;strokeWidth=3;" parent="WIyWlLk6GJQsqaUBKTNV-1" source="VLkjjHOsaNSiTmbBTy0C-4" target="9-DIKQarRm8jcJujgLMe-27" edge="1">
          <mxGeometry relative="1" as="geometry" />
        </mxCell>
        <mxCell id="9-DIKQarRm8jcJujgLMe-30" value="&lt;font style=&quot;font-size: 16px;&quot;&gt;Grow&lt;/font&gt;" style="edgeLabel;html=1;align=center;verticalAlign=bottom;resizable=0;points=[];labelPosition=center;verticalLabelPosition=top;labelBackgroundColor=none;" parent="9-DIKQarRm8jcJujgLMe-28" vertex="1" connectable="0">
          <mxGeometry relative="1" as="geometry">
            <mxPoint x="3" as="offset" />
          </mxGeometry>
        </mxCell>
        <mxCell id="VLkjjHOsaNSiTmbBTy0C-4" value="&lt;font style=&quot;font-size: 16px;&quot;&gt;&lt;span style=&quot;white-space: pre;&quot;&gt;&#x9;&lt;/span&gt;GOBI&lt;/font&gt;" style="rounded=1;whiteSpace=wrap;html=1;fontSize=12;glass=0;strokeWidth=2;shadow=0;align=left;fillColor=#d5e8d4;strokeColor=#82b366;" parent="WIyWlLk6GJQsqaUBKTNV-1" vertex="1">
          <mxGeometry x="310" y="276.88" width="190" height="63.12" as="geometry" />
        </mxCell>
        <mxCell id="9-DIKQarRm8jcJujgLMe-25" style="edgeStyle=orthogonalEdgeStyle;rounded=0;orthogonalLoop=1;jettySize=auto;html=1;exitX=0.25;exitY=1;exitDx=0;exitDy=0;endArrow=classic;endFill=1;strokeWidth=1;startArrow=none;startFill=0;" parent="WIyWlLk6GJQsqaUBKTNV-1" source="WIyWlLk6GJQsqaUBKTNV-3" edge="1">
          <mxGeometry relative="1" as="geometry">
            <mxPoint x="330" y="340" as="targetPoint" />
            <Array as="points">
              <mxPoint x="423" y="360" />
              <mxPoint x="330" y="360" />
              <mxPoint x="330" y="340" />
            </Array>
          </mxGeometry>
        </mxCell>
        <mxCell id="9-DIKQarRm8jcJujgLMe-26" value="&lt;font style=&quot;font-size: 16px;&quot;&gt;Extract&lt;/font&gt;" style="edgeLabel;html=1;align=center;verticalAlign=middle;resizable=0;points=[];" parent="9-DIKQarRm8jcJujgLMe-25" vertex="1" connectable="0">
          <mxGeometry x="0.2128" y="-2" relative="1" as="geometry">
            <mxPoint x="7" as="offset" />
          </mxGeometry>
        </mxCell>
        <mxCell id="WIyWlLk6GJQsqaUBKTNV-3" value="&lt;font style=&quot;font-size: 16px;&quot;&gt;GLM&lt;/font&gt;" style="rounded=1;whiteSpace=wrap;html=1;fontSize=12;glass=0;strokeWidth=2;shadow=0;fillColor=#cdeb8b;strokeColor=#36393d;" parent="WIyWlLk6GJQsqaUBKTNV-1" vertex="1">
          <mxGeometry x="405" y="293" width="70" height="31" as="geometry" />
        </mxCell>
        <mxCell id="VLkjjHOsaNSiTmbBTy0C-1" value="" style="edgeStyle=orthogonalEdgeStyle;rounded=0;orthogonalLoop=1;jettySize=auto;html=1;endArrow=classic;endFill=1;startArrow=none;startFill=0;strokeWidth=3;" parent="WIyWlLk6GJQsqaUBKTNV-1" source="VLkjjHOsaNSiTmbBTy0C-0" target="WIyWlLk6GJQsqaUBKTNV-3" edge="1">
          <mxGeometry relative="1" as="geometry" />
        </mxCell>
        <mxCell id="9-DIKQarRm8jcJujgLMe-4" value="&lt;font style=&quot;font-size: 16px;&quot;&gt;Train&lt;/font&gt;" style="edgeLabel;html=1;align=left;verticalAlign=middle;resizable=0;points=[];labelPosition=right;verticalLabelPosition=middle;labelBackgroundColor=none;" parent="VLkjjHOsaNSiTmbBTy0C-1" vertex="1" connectable="0">
          <mxGeometry x="0.3878" relative="1" as="geometry">
            <mxPoint x="2" y="-15" as="offset" />
          </mxGeometry>
        </mxCell>
        <mxCell id="VLkjjHOsaNSiTmbBTy0C-0" value="&lt;font style=&quot;font-size: 16px;&quot;&gt;Preprocessed&lt;br&gt;dataset&lt;/font&gt;" style="rounded=0;whiteSpace=wrap;html=1;gradientDirection=west;fillColor=#fff2cc;strokeColor=#d6b656;strokeWidth=2;" parent="WIyWlLk6GJQsqaUBKTNV-1" vertex="1">
          <mxGeometry x="380" y="200" width="120" height="40" as="geometry" />
        </mxCell>
        <mxCell id="9-DIKQarRm8jcJujgLMe-19" style="edgeStyle=orthogonalEdgeStyle;rounded=0;orthogonalLoop=1;jettySize=auto;html=1;entryX=0.25;entryY=0;entryDx=0;entryDy=0;endArrow=none;endFill=0;strokeWidth=1;startArrow=classic;startFill=1;" parent="WIyWlLk6GJQsqaUBKTNV-1" target="WIyWlLk6GJQsqaUBKTNV-3" edge="1">
          <mxGeometry relative="1" as="geometry">
            <mxPoint x="330" y="277" as="sourcePoint" />
            <Array as="points">
              <mxPoint x="330" y="259" />
              <mxPoint x="423" y="259" />
            </Array>
          </mxGeometry>
        </mxCell>
        <mxCell id="9-DIKQarRm8jcJujgLMe-20" value="Extract" style="edgeLabel;html=1;align=center;verticalAlign=middle;resizable=0;points=[];fontSize=16;" parent="9-DIKQarRm8jcJujgLMe-19" vertex="1" connectable="0">
          <mxGeometry x="0.0756" y="1" relative="1" as="geometry">
            <mxPoint x="-15" y="2" as="offset" />
          </mxGeometry>
        </mxCell>
        <mxCell id="9-DIKQarRm8jcJujgLMe-2" style="edgeStyle=orthogonalEdgeStyle;rounded=0;orthogonalLoop=1;jettySize=auto;html=1;entryX=0.5;entryY=0;entryDx=0;entryDy=0;endArrow=none;endFill=0;startArrow=classic;startFill=1;strokeWidth=3;" parent="WIyWlLk6GJQsqaUBKTNV-1" source="9-DIKQarRm8jcJujgLMe-0" target="VLkjjHOsaNSiTmbBTy0C-42" edge="1">
          <mxGeometry relative="1" as="geometry">
            <mxPoint x="290" y="170" as="sourcePoint" />
            <Array as="points">
              <mxPoint x="306" y="170" />
              <mxPoint x="625" y="170" />
            </Array>
          </mxGeometry>
        </mxCell>
        <mxCell id="9-DIKQarRm8jcJujgLMe-11" value="Inject" style="edgeLabel;html=1;align=center;verticalAlign=middle;resizable=0;points=[];fontSize=16;" parent="9-DIKQarRm8jcJujgLMe-2" vertex="1" connectable="0">
          <mxGeometry x="-0.0629" y="2" relative="1" as="geometry">
            <mxPoint as="offset" />
          </mxGeometry>
        </mxCell>
        <mxCell id="9-DIKQarRm8jcJujgLMe-10" style="edgeStyle=orthogonalEdgeStyle;rounded=0;orthogonalLoop=1;jettySize=auto;html=1;exitX=1;exitY=0.5;exitDx=0;exitDy=0;entryX=0;entryY=0.5;entryDx=0;entryDy=0;strokeWidth=1;" parent="WIyWlLk6GJQsqaUBKTNV-1" source="9-DIKQarRm8jcJujgLMe-0" target="VLkjjHOsaNSiTmbBTy0C-0" edge="1">
          <mxGeometry relative="1" as="geometry" />
        </mxCell>
        <mxCell id="9-DIKQarRm8jcJujgLMe-0" value="&lt;font style=&quot;font-size: 16px;&quot;&gt;Dataset&lt;/font&gt;" style="rounded=0;whiteSpace=wrap;html=1;dashed=1;fillColor=#ffe6cc;strokeColor=#d79b00;strokeWidth=2;" parent="WIyWlLk6GJQsqaUBKTNV-1" vertex="1">
          <mxGeometry x="266" y="200" width="80" height="40" as="geometry" />
        </mxCell>
        <mxCell id="VLkjjHOsaNSiTmbBTy0C-42" value="" style="rounded=0;whiteSpace=wrap;html=1;fontFamily=Helvetica;fontSize=11;fontColor=#333333;container=1;dashed=1;fillColor=#f5f5f5;strokeColor=#666666;strokeWidth=2;" parent="WIyWlLk6GJQsqaUBKTNV-1" vertex="1">
          <mxGeometry x="520" y="200" width="210" height="150" as="geometry" />
        </mxCell>
        <mxCell id="VLkjjHOsaNSiTmbBTy0C-7" value="" style="strokeWidth=2;dashed=0;align=center;fontSize=8;shape=rect;fillColor=#dae8fc;strokeColor=#6c8ebf;" parent="WIyWlLk6GJQsqaUBKTNV-1" vertex="1">
          <mxGeometry x="586" y="226.25" width="26" height="16.875" as="geometry" />
        </mxCell>
        <mxCell id="VLkjjHOsaNSiTmbBTy0C-8" value="" style="strokeWidth=2;dashed=0;align=center;fontSize=8;shape=rect;fillColor=#dae8fc;strokeColor=#6c8ebf;" parent="WIyWlLk6GJQsqaUBKTNV-1" vertex="1">
          <mxGeometry x="539" y="243.125" width="26" height="16.875" as="geometry" />
        </mxCell>
        <mxCell id="VLkjjHOsaNSiTmbBTy0C-9" value="" style="strokeWidth=2;dashed=0;align=center;fontSize=8;shape=rect;fillColor=#dae8fc;strokeColor=#6c8ebf;" parent="WIyWlLk6GJQsqaUBKTNV-1" vertex="1">
          <mxGeometry x="633" y="243.125" width="26" height="16.875" as="geometry" />
        </mxCell>
        <mxCell id="VLkjjHOsaNSiTmbBTy0C-10" value="" style="strokeWidth=2;dashed=0;align=center;fontSize=8;shape=rect;fillColor=#dae8fc;strokeColor=#6c8ebf;" parent="WIyWlLk6GJQsqaUBKTNV-1" vertex="1">
          <mxGeometry x="539" y="276.875" width="26" height="16.875" as="geometry" />
        </mxCell>
        <mxCell id="VLkjjHOsaNSiTmbBTy0C-11" value="" style="strokeWidth=2;dashed=0;align=center;fontSize=8;shape=rect;fillColor=#dae8fc;strokeColor=#6c8ebf;" parent="WIyWlLk6GJQsqaUBKTNV-1" vertex="1">
          <mxGeometry x="633" y="276.875" width="26" height="16.875" as="geometry" />
        </mxCell>
        <mxCell id="VLkjjHOsaNSiTmbBTy0C-12" value="" style="strokeWidth=2;dashed=0;align=center;fontSize=8;shape=rect;fillColor=#dae8fc;strokeColor=#6c8ebf;" parent="WIyWlLk6GJQsqaUBKTNV-1" vertex="1">
          <mxGeometry x="689" y="260" width="26" height="16.875" as="geometry" />
        </mxCell>
        <mxCell id="VLkjjHOsaNSiTmbBTy0C-30" style="edgeStyle=none;rounded=0;orthogonalLoop=1;jettySize=auto;html=1;exitX=1;exitY=0.25;exitDx=0;exitDy=0;entryX=0.75;entryY=0;entryDx=0;entryDy=0;endArrow=none;endFill=0;strokeWidth=2;fillColor=#dae8fc;strokeColor=#6c8ebf;" parent="WIyWlLk6GJQsqaUBKTNV-1" source="VLkjjHOsaNSiTmbBTy0C-9" target="VLkjjHOsaNSiTmbBTy0C-12" edge="1">
          <mxGeometry relative="1" as="geometry" />
        </mxCell>
        <mxCell id="VLkjjHOsaNSiTmbBTy0C-13" value="" style="strokeWidth=2;dashed=0;align=center;fontSize=8;shape=rect;fillColor=#dae8fc;strokeColor=#6c8ebf;" parent="WIyWlLk6GJQsqaUBKTNV-1" vertex="1">
          <mxGeometry x="586" y="260" width="26" height="16.875" as="geometry" />
        </mxCell>
        <mxCell id="VLkjjHOsaNSiTmbBTy0C-14" value="" style="edgeStyle=none;endArrow=none;dashed=0;html=1;strokeWidth=2;rounded=0;fillColor=#dae8fc;strokeColor=#6c8ebf;" parent="WIyWlLk6GJQsqaUBKTNV-1" source="VLkjjHOsaNSiTmbBTy0C-13" target="VLkjjHOsaNSiTmbBTy0C-7" edge="1">
          <mxGeometry relative="1" as="geometry" />
        </mxCell>
        <mxCell id="VLkjjHOsaNSiTmbBTy0C-15" value="" style="edgeStyle=none;endArrow=none;dashed=0;html=1;strokeWidth=2;rounded=0;fillColor=#dae8fc;strokeColor=#6c8ebf;" parent="WIyWlLk6GJQsqaUBKTNV-1" source="VLkjjHOsaNSiTmbBTy0C-13" target="VLkjjHOsaNSiTmbBTy0C-8" edge="1">
          <mxGeometry relative="1" as="geometry" />
        </mxCell>
        <mxCell id="VLkjjHOsaNSiTmbBTy0C-16" value="" style="edgeStyle=none;endArrow=none;dashed=0;html=1;strokeWidth=2;rounded=0;fillColor=#dae8fc;strokeColor=#6c8ebf;" parent="WIyWlLk6GJQsqaUBKTNV-1" source="VLkjjHOsaNSiTmbBTy0C-13" target="VLkjjHOsaNSiTmbBTy0C-9" edge="1">
          <mxGeometry relative="1" as="geometry" />
        </mxCell>
        <mxCell id="VLkjjHOsaNSiTmbBTy0C-17" value="" style="edgeStyle=none;endArrow=none;dashed=0;html=1;strokeWidth=2;rounded=0;fillColor=#dae8fc;strokeColor=#6c8ebf;" parent="WIyWlLk6GJQsqaUBKTNV-1" source="VLkjjHOsaNSiTmbBTy0C-13" target="VLkjjHOsaNSiTmbBTy0C-10" edge="1">
          <mxGeometry relative="1" as="geometry" />
        </mxCell>
        <mxCell id="VLkjjHOsaNSiTmbBTy0C-18" value="" style="edgeStyle=none;endArrow=none;dashed=0;html=1;strokeWidth=2;rounded=0;fillColor=#dae8fc;strokeColor=#6c8ebf;" parent="WIyWlLk6GJQsqaUBKTNV-1" source="VLkjjHOsaNSiTmbBTy0C-13" target="VLkjjHOsaNSiTmbBTy0C-11" edge="1">
          <mxGeometry relative="1" as="geometry" />
        </mxCell>
        <mxCell id="VLkjjHOsaNSiTmbBTy0C-19" value="" style="edgeStyle=none;endArrow=none;dashed=0;html=1;strokeWidth=2;rounded=0;fillColor=#dae8fc;strokeColor=#6c8ebf;" parent="WIyWlLk6GJQsqaUBKTNV-1" source="VLkjjHOsaNSiTmbBTy0C-13" target="VLkjjHOsaNSiTmbBTy0C-12" edge="1">
          <mxGeometry relative="1" as="geometry" />
        </mxCell>
        <mxCell id="VLkjjHOsaNSiTmbBTy0C-23" value="" style="edgeStyle=none;endArrow=none;dashed=0;html=1;strokeWidth=2;rounded=0;entryX=0.5;entryY=1;entryDx=0;entryDy=0;fillColor=#dae8fc;strokeColor=#6c8ebf;" parent="WIyWlLk6GJQsqaUBKTNV-1" target="VLkjjHOsaNSiTmbBTy0C-12" edge="1">
          <mxGeometry relative="1" as="geometry">
            <mxPoint x="660" y="286.25" as="sourcePoint" />
            <mxPoint x="737" y="286.25" as="targetPoint" />
          </mxGeometry>
        </mxCell>
        <mxCell id="VLkjjHOsaNSiTmbBTy0C-31" value="" style="strokeWidth=2;dashed=0;align=center;fontSize=8;shape=rect;fillColor=#dae8fc;strokeColor=#6c8ebf;" parent="WIyWlLk6GJQsqaUBKTNV-1" vertex="1">
          <mxGeometry x="589" y="313.4375" width="26" height="16.875" as="geometry" />
        </mxCell>
        <mxCell id="VLkjjHOsaNSiTmbBTy0C-39" style="edgeStyle=none;shape=connector;rounded=0;orthogonalLoop=1;jettySize=auto;html=1;exitX=0;exitY=0.75;exitDx=0;exitDy=0;entryX=1;entryY=0;entryDx=0;entryDy=0;labelBackgroundColor=default;strokeColor=#6c8ebf;strokeWidth=2;fontFamily=Helvetica;fontSize=11;fontColor=default;endArrow=none;endFill=0;fillColor=#dae8fc;" parent="WIyWlLk6GJQsqaUBKTNV-1" source="VLkjjHOsaNSiTmbBTy0C-11" target="VLkjjHOsaNSiTmbBTy0C-31" edge="1">
          <mxGeometry relative="1" as="geometry" />
        </mxCell>
        <mxCell id="VLkjjHOsaNSiTmbBTy0C-37" style="edgeStyle=none;shape=connector;rounded=0;orthogonalLoop=1;jettySize=auto;html=1;exitX=0.5;exitY=0;exitDx=0;exitDy=0;labelBackgroundColor=default;strokeColor=#6c8ebf;strokeWidth=2;fontFamily=Helvetica;fontSize=11;fontColor=default;endArrow=none;endFill=0;fillColor=#dae8fc;" parent="WIyWlLk6GJQsqaUBKTNV-1" source="VLkjjHOsaNSiTmbBTy0C-33" edge="1">
          <mxGeometry relative="1" as="geometry">
            <mxPoint x="659" y="284.375" as="targetPoint" />
          </mxGeometry>
        </mxCell>
        <mxCell id="VLkjjHOsaNSiTmbBTy0C-33" value="" style="strokeWidth=2;dashed=0;align=center;fontSize=8;shape=rect;fillColor=#dae8fc;strokeColor=#6c8ebf;" parent="WIyWlLk6GJQsqaUBKTNV-1" vertex="1">
          <mxGeometry x="676" y="314.375" width="26" height="16.875" as="geometry" />
        </mxCell>
        <mxCell id="VLkjjHOsaNSiTmbBTy0C-40" value="&lt;b&gt;&lt;font style=&quot;font-size: 16px;&quot;&gt;KG&lt;/font&gt;&lt;/b&gt;" style="text;html=1;strokeColor=none;fillColor=none;align=center;verticalAlign=middle;whiteSpace=wrap;rounded=0;fontSize=11;fontFamily=Helvetica;fontColor=default;" parent="WIyWlLk6GJQsqaUBKTNV-1" vertex="1">
          <mxGeometry x="616" y="209.375" width="60" height="28.125" as="geometry" />
        </mxCell>
        <mxCell id="VLkjjHOsaNSiTmbBTy0C-36" style="edgeStyle=none;shape=connector;rounded=0;orthogonalLoop=1;jettySize=auto;html=1;exitX=0.5;exitY=1;exitDx=0;exitDy=0;entryX=0.5;entryY=0;entryDx=0;entryDy=0;labelBackgroundColor=default;strokeColor=#6c8ebf;strokeWidth=2;fontFamily=Helvetica;fontSize=11;fontColor=default;endArrow=none;endFill=0;fillColor=#dae8fc;" parent="WIyWlLk6GJQsqaUBKTNV-1" source="VLkjjHOsaNSiTmbBTy0C-12" target="VLkjjHOsaNSiTmbBTy0C-33" edge="1">
          <mxGeometry relative="1" as="geometry" />
        </mxCell>
        <mxCell id="9-DIKQarRm8jcJujgLMe-32" style="edgeStyle=orthogonalEdgeStyle;rounded=0;orthogonalLoop=1;jettySize=auto;html=1;exitX=0.5;exitY=1;exitDx=0;exitDy=0;entryX=0.5;entryY=1;entryDx=0;entryDy=0;strokeWidth=3;" parent="WIyWlLk6GJQsqaUBKTNV-1" source="9-DIKQarRm8jcJujgLMe-27" target="VLkjjHOsaNSiTmbBTy0C-42" edge="1">
          <mxGeometry relative="1" as="geometry">
            <mxPoint x="632.5" y="430.78" as="targetPoint" />
            <mxPoint x="177.5" y="400" as="sourcePoint" />
            <Array as="points">
              <mxPoint x="210" y="380" />
              <mxPoint x="625" y="380" />
            </Array>
          </mxGeometry>
        </mxCell>
        <mxCell id="9-DIKQarRm8jcJujgLMe-33" value="&lt;font style=&quot;font-size: 16px;&quot;&gt;Add&lt;/font&gt;" style="edgeLabel;html=1;align=center;verticalAlign=middle;resizable=0;points=[];" parent="9-DIKQarRm8jcJujgLMe-32" vertex="1" connectable="0">
          <mxGeometry x="0.1936" relative="1" as="geometry">
            <mxPoint as="offset" />
          </mxGeometry>
        </mxCell>
        <mxCell id="9-DIKQarRm8jcJujgLMe-27" value="&lt;font style=&quot;font-size: 16px;&quot;&gt;New Dataset&lt;/font&gt;" style="rounded=0;whiteSpace=wrap;html=1;dashed=1;fillColor=#ffe6cc;strokeColor=#d79b00;strokeWidth=2;" parent="WIyWlLk6GJQsqaUBKTNV-1" vertex="1">
          <mxGeometry x="170" y="287.66" width="80" height="41.56" as="geometry" />
        </mxCell>
      </root>
    </mxGraphModel>
  </diagram>
</mxfile>
